<?xml version="1.0" encoding="UTF-8"?>
<svg data-bbox="0.028 -0.002 363.532 70.886" viewBox="0 0 363.56 70.89" xmlns:xlink="http://www.w3.org/1999/xlink" xmlns="http://www.w3.org/2000/svg" data-type="ugc">
    <g>
        <defs>
            <linearGradient gradientUnits="userSpaceOnUse" gradientTransform="matrix(53.64 0 0 56.3 23589.33 -5618.69)" y2="101.07" x2="-438.86" y1="99.81" x1="-438.86" id="8cfef1c2-534e-4c3e-a1d4-6b2a4ce3f0a6">
                <stop stop-color="#0f384c" offset="0"/>
                <stop stop-color="#113e52" offset="0"/>
                <stop stop-color="#28899d" offset=".49"/>
                <stop stop-color="#b5b682" offset="1"/>
            </linearGradient>
            <linearGradient xlink:href="#8cfef1c2-534e-4c3e-a1d4-6b2a4ce3f0a6" gradientTransform="matrix(12.09 -6.35 1.75 3.32 4661.75 -3169.96)" y2="180.61" x2="-408.19" y1="178.79" x1="-408.19" id="24b15e28-3a38-45ed-bc33-436c39a837ed"/>
        </defs>
        <path d="M299.82 22.52h5.45l10.92 28.37h-5.59l-2.23-5.87h-11.64l-2.24 5.87h-5.59zm2.8 7.54l-3.8 9.83h7.55z" fill="#b5b682"/>
        <path d="M253.59 22.52h5.31l4.05 18 5-18h4.48l5.17 18 4.05-18h5.31l-6.43 28.37h-5.17l-5.17-18.3-5.17 18.3h-5z" fill="#b5b682"/>
        <path d="M318.29 22.52h5.59L331 42.64l7.27-20.12h5.55l-10.16 28.37h-5.17z" fill="#b5b682"/>
        <path d="M348.05 22.52h15.51v5.31H353.5V33h10.06v5.17H353.5v7.4h10.06v5.32h-15.51z" fill="#b5b682"/>
        <path d="M305.29 22.52l10.9 28.37h-5.59l-2.23-5.87h-11.64l-2.24 5.87zm-2.65 7.54l-3.82 9.83h7.55z" fill="#b5b682"/>
        <path d="M96.26 27.83l-2.24 1.67a11.45 11.45 0 0 0-4.47-3.61 13.67 13.67 0 0 0-5.73-1.28 12.38 12.38 0 0 0-6.28 1.72 12.09 12.09 0 0 0-4.48 4.33 10.71 10.71 0 0 0-1.53 6.15A12 12 0 0 0 83.4 48.94h.56a12.64 12.64 0 0 0 9.92-4.6l2.24 1.68a14.19 14.19 0 0 1-5.3 4.18 17.63 17.63 0 0 1-7.08 1.52 14.83 14.83 0 0 1-11.73-4.89 15.6 15.6 0 0 1-3.64-10.06 14.23 14.23 0 0 1 4.29-10.44 15 15 0 0 1 10.89-4.19 17.71 17.71 0 0 1 7.13 1.53 11.27 11.27 0 0 1 5.58 4.16z" fill="#39b2cf"/>
        <path d="M102.13 22.52h5.6a24.68 24.68 0 0 1 6.42.42 6.92 6.92 0 0 1 4.06 2.51 6.22 6.22 0 0 1 1.52 4.61 7.1 7.1 0 0 1-4.19 6.71 15.23 15.23 0 0 1-5.59 1l10.2 13.12h-3.49l-10.2-13.13h-1.54v13.13h-2.79zm2.79 2.81v9.64h4.9a14.52 14.52 0 0 0 4.2-.56 4.19 4.19 0 0 0 2.09-1.67 3.67 3.67 0 0 0 .7-2.66 4.93 4.93 0 0 0-2.79-4.33 14.52 14.52 0 0 0-4.2-.56z" fill="#39b2cf"/>
        <path d="M125.88 22.52h16.21v2.81h-13.36v8.94H142v2.8h-13.27v11.16H142v2.79h-16.12z" fill="#39b2cf"/>
        <path d="M144.05 45.57l2.37-1.4c1.68 3.08 3.63 4.76 5.87 4.62a5.89 5.89 0 0 0 2.66-.7 5 5 0 0 0 2-1.82 4.78 4.78 0 0 0 .7-2.38 5.19 5.19 0 0 0-1-2.79 30.36 30.36 0 0 0-4.87-4.61 23.81 23.81 0 0 1-4.47-3.91 7.18 7.18 0 0 1-1.53-4.33 6.92 6.92 0 0 1 .84-3.36 5.89 5.89 0 0 1 2.52-2.37 7.46 7.46 0 0 1 3.49-.84 7.25 7.25 0 0 1 3.77 1 12.75 12.75 0 0 1 3.63 3.65l-2.38 1.82a9 9 0 0 0-2.79-2.8 4.86 4.86 0 0 0-2.52-.7 4 4 0 0 0-2.79 1 3.49 3.49 0 0 0-1.12 2.52 4.36 4.36 0 0 0 .42 1.81 6.48 6.48 0 0 0 1.39 1.82 45 45 0 0 0 3.58 2.79 18.76 18.76 0 0 1 5 4.89 7.91 7.91 0 0 1 1.39 4.2 7 7 0 0 1-2.39 5.31 8.39 8.39 0 0 1-10.34.83 10.69 10.69 0 0 1-3.43-4.25z" fill="#39b2cf"/>
        <path d="M163.89 25.33v-2.81h15.51v2.81h-6.29v25.56h-2.93V25.33z" fill="#39b2cf"/>
        <path d="M183.03 22.52h2.79v28.37h-2.79z" fill="#39b2cf"/>
        <path d="M192.39 50.89V22.52h.56l18.87 21.65V22.52h2.8v28.37h-.7l-18.73-21.56v21.56z" fill="#39b2cf"/>
        <path d="M248.82 27.27l-2.23 2.06a16.39 16.39 0 0 0-5.15-3.44 14.86 14.86 0 0 0-5.45-1.26 12.12 12.12 0 0 0-6.26 1.75 10.86 10.86 0 0 0-4.61 4.47 11 11 0 0 0-1.68 5.87 11.54 11.54 0 0 0 1.68 6 11.32 11.32 0 0 0 4.75 4.47 14 14 0 0 0 6.57 1.68 11.07 11.07 0 0 0 7.4-2.52 10.24 10.24 0 0 0 3.63-6.46h-9.08v-2.84h12.16a14.42 14.42 0 0 1-3.91 10.48 14.36 14.36 0 0 1-10.34 3.91 15.57 15.57 0 0 1-12.48-5.31 13.42 13.42 0 0 1-3.49-9.5 16.07 16.07 0 0 1 1.95-7.55 14 14 0 0 1 5.59-5.45 17.41 17.41 0 0 1 8-1.95 19.11 19.11 0 0 1 6.85 1.26 23.8 23.8 0 0 1 6.1 4.33z" fill="#39b2cf"/>
        <g>
            <path transform="translate(-19.18 -1.11)" d="M33.12 55.92c5.62 6.5 14.72 10.69 23.39 9.42 13.76-1.94 20.86-16.63 21.77-15.91s-5.17 16.92-19.82 21.43a28.67 28.67 0 0 1-18.84-1c-14.51-6-22.35-23.92-20-38.65a39.85 39.85 0 0 1 12.79-22.9l.6-.48C35.45 6 42.17 1 51.47 1.11c3.71 0 10.69.2 15.26 5.75 5.38 6.5 3.41 15.54 2.79 15.65-.46.06-.09-5-3.64-9.8-4.72-6.37-12.44-7.36-13.2-7.45-4.24-.46-7.86.7-7.85 1s3.37-.38 7.48 1a16.34 16.34 0 0 1 7.1 4.62c2.73 3.15 3.8 7.1 3.29 7.39s-2.17-4-6.6-6.66c-5.45-3.27-11.65-1.89-12.45-1.71-5.49 1.16-10.65 7.31-13.11 11.61-4.44 7.83-6.73 22.65 2.58 33.41z" fill="url(#8cfef1c2-534e-4c3e-a1d4-6b2a4ce3f0a6)"/>
            <path transform="translate(-19.18 -1.11)" d="M31 27.93c-.16-.1 3.18-10.37 11.52-13.6 5.77-2.23 11.66-.22 11.66.32s-8.12-1-15.27 3.57A22.15 22.15 0 0 0 31 27.93z" fill="url(#24b15e28-3a38-45ed-bc33-436c39a837ed)"/>
        </g>
        <path d="M11.82 45.42a39.47 39.47 0 0 1 1.78-4.88 11.38 11.38 0 0 1 1.32-2.33 3.63 3.63 0 0 1 1.14-1l.46-.16a2.53 2.53 0 0 1 .55 0 1.77 1.77 0 0 1 .89.48 3.71 3.71 0 0 1 .83 1.3 11.15 11.15 0 0 1 .48 1.33c.26.86.46 1.71.65 2.56a45.43 45.43 0 0 0 1.18 4.87 2.29 2.29 0 0 0 .39.74s-.06-.1-.26-.1h-.19a3.51 3.51 0 0 0 .5-.73c.18-.34.34-.69.51-1.07.64-1.51 1.18-3.14 1.83-4.82a17.47 17.47 0 0 1 1.18-2.47 5.59 5.59 0 0 1 1-1.34 2.61 2.61 0 0 1 .46-.34 2.41 2.41 0 0 1 .68-.29 2.19 2.19 0 0 1 1.66.26 2.89 2.89 0 0 1 .86.88 5.62 5.62 0 0 1 .4.77 13.24 13.24 0 0 1 .48 1.38l.68 2.5a14.15 14.15 0 0 0 .75 2.19 3.19 3.19 0 0 0 .46.69.75.75 0 0 0 .35.22.79.79 0 0 0 .39-.11 3.74 3.74 0 0 0 .74-.57 21.84 21.84 0 0 0 1.54-1.78c2.13-2.62 4.43-5.5 7.57-7.46a21 21 0 0 1 10.17-3.11 34.23 34.23 0 0 1 10.32 1.13 42.45 42.45 0 0 0-10.2.21 20.91 20.91 0 0 0-9.04 3.52 22.52 22.52 0 0 0-3.58 3.32c-1.09 1.24-2.06 2.59-3.13 4a19.58 19.58 0 0 1-1.8 2.06 6 6 0 0 1-1.3 1 3.22 3.22 0 0 1-2.06.42 3.32 3.32 0 0 1-1.9-1 5.51 5.51 0 0 1-1-1.38 14.68 14.68 0 0 1-1-2.67l-.62-2.48c-.11-.39-.23-.76-.35-1.07a2.53 2.53 0 0 0-.18-.37c-.05-.08-.1-.11 0-.06a.52.52 0 0 0 .42.07h.08-.05a3.29 3.29 0 0 0-.54.69 20.36 20.36 0 0 0-1 2.15c-.69 1.52-1.28 3.14-2.07 4.76a12.44 12.44 0 0 1-.65 1.25 4.93 4.93 0 0 1-1.05 1.31 2 2 0 0 1-.53.33 2.6 2.6 0 0 1-.36.13 2.3 2.3 0 0 1-.45.05 2 2 0 0 1-1.39-.64 4.44 4.44 0 0 1-.76-1.54 22.18 22.18 0 0 1-.55-2.67c-.14-.86-.25-1.72-.36-2.56s-.24-1.68-.41-2.48a9.45 9.45 0 0 0-.31-1.16 3 3 0 0 0-.45-.91c-.18-.17-.18-.23-.44-.16a2.62 2.62 0 0 0-.82.62 13.66 13.66 0 0 0-1.46 2 48 48 0 0 0-2.44 4.52z" fill="#278a9e"/>
    </g>
</svg>
